<svg width="600" height="600" viewBox="0 0 600 600" fill="none" xmlns="http://www.w3.org/2000/svg">
<g clip-path="url(#clip0_2017_110)">
<path d="M470 50H130C85.8172 50 50 85.8172 50 130V470C50 514.183 85.8172 550 130 550H470C514.183 550 550 514.183 550 470V130C550 85.8172 514.183 50 470 50Z" stroke="#195CC8" stroke-width="32"/>
<path d="M279.988 299.751C279.988 341.476 246.163 375.301 204.438 375.301C162.713 375.301 128.888 341.476 128.888 299.751C128.888 258.026 162.713 224.201 204.438 224.201C246.163 224.201 279.988 258.026 279.988 299.751Z" stroke="#195CC8" stroke-width="37.7752"/>
<path d="M484.532 286.71L397.277 199.455C392.535 194.735 385.634 192.903 379.174 194.65C372.715 196.397 367.678 201.458 365.961 207.925C364.245 214.393 366.109 221.285 370.852 226.006L426.072 281.101H283.846C273.52 281.101 265.148 289.472 265.148 299.798C265.148 310.125 273.52 318.496 283.846 318.496H426.072L370.852 373.591C365.511 378.938 363.915 386.975 366.806 393.957C369.697 400.939 376.507 405.495 384.064 405.502C389.082 405.427 393.853 403.312 397.277 399.643L484.532 312.388C491.823 305.088 491.823 293.262 484.532 285.962V286.71Z" fill="#195CC8"/>
</g>
<defs>
<clipPath id="clip0_2017_110">
<rect width="600" height="600" fill="white"/>
</clipPath>
</defs>
</svg>
